# xmcd CD database file
#
# Track frame offsets:
#	150
#	16572
#	32636
#	45013
#	58043
#	70570
#	86370
#	96388
#	115025
#	127720
#	139341
#	153555
#	165757
#	180694
#	193816
#	209886
#	222328
#	239320
#	255313
#	266885
#	281843
#	301243
#	315300
#
# Disc length: 4384 seconds
#
# Revision: 1
# Processed by: cddbd v1.5.1PL0 Copyright (c) Steve Scherf et al.
# Submitted via: CDex 1.40Beta9
#
DISCID=35111e17
DTITLE=Quem tem... nã otem medo - O melhor do Sertanejo
DYEAR=1900
DGENRE=Country
TTITLE0=César e Paulinho - Nóis é Cowboy
TTITLE1=Rick e Renner - Pra ficar dez
TTITLE2=Leonardo - Rola Pinga
TTITLE3=Fred e Pedrito - Mocinhas da cidade
TTITLE4=Henrique e Hermani - Carminha
TTITLE5=César e Paulinho - A gata da BMW
TTITLE6=Teodoro e Sampaio - Quem tem ... tem medo
TTITLE7=Emilio e Eduardo - Você virou saudade
TTITLE8=Ataíde e Alexandre - Comer, comer
TTITLE9=Marcos e Fernando - Socorro
TTITLE10=Romes e Carlinhos - Jogo de truco
TTITLE11=Guilherme e Gustavo - Forró Suor e Fricote
TTITLE12=Leonardo - Água de Coco
TTITLE13=Sandro e Gustavo - Garagem da vizinha
TTITLE14=Rick e Renner - Remelexo
TTITLE15=Mauricio e Marcelo - Entornando o caldo
TTITLE16=Rio Negro e Solimões - Saudade Aperta
TTITLE17=César e Paulinho - O Cowboy comeu Poeira
TTITLE18=Emoções da Terra - Aqui não pica-pau
TTITLE19=Gian e Giovane - Gol do coração
TTITLE20=André e Adriano - Jeripoca vai piá
TTITLE21=Rick e Renner - Peão que é peão
TTITLE22=Rico e Roney - Moreninha Safadinha
EXTD=ID3G: 2
EXTT0=
EXTT1=
EXTT2=
EXTT3=
EXTT4=
EXTT5=
EXTT6=
EXTT7=
EXTT8=
EXTT9=
EXTT10=
EXTT11=
EXTT12=
EXTT13=
EXTT14=
EXTT15=
EXTT16=
EXTT17=
EXTT18=
EXTT19=
EXTT20=
EXTT21=
EXTT22=
PLAYORDER=
